<svg width="21" height="12" viewBox="0 0 21 12" fill="none" xmlns="http://www.w3.org/2000/svg">
<path d="M19.7667 4.25825L16.5417 0.999917C16.4642 0.92181 16.372 0.859814 16.2705 0.817507C16.1689 0.7752 16.06 0.753418 15.95 0.753418C15.84 0.753418 15.7311 0.7752 15.6295 0.817507C15.528 0.859814 15.4358 0.92181 15.3583 0.999917C15.2031 1.15605 15.116 1.36726 15.116 1.58742C15.116 1.80757 15.2031 2.01878 15.3583 2.17492L18.325 5.16658H1.33333C1.11232 5.16658 0.900358 5.25438 0.744078 5.41066C0.587797 5.56694 0.5 5.7789 0.5 5.99992H0.5C0.5 6.22093 0.587797 6.43289 0.744078 6.58917C0.900358 6.74545 1.11232 6.83325 1.33333 6.83325H18.375L15.3583 9.84158C15.2802 9.91905 15.2182 10.0112 15.1759 10.1128C15.1336 10.2143 15.1118 10.3232 15.1118 10.4332C15.1118 10.5433 15.1336 10.6522 15.1759 10.7537C15.2182 10.8553 15.2802 10.9474 15.3583 11.0249C15.4358 11.103 15.528 11.165 15.6295 11.2073C15.7311 11.2496 15.84 11.2714 15.95 11.2714C16.06 11.2714 16.1689 11.2496 16.2705 11.2073C16.372 11.165 16.4642 11.103 16.5417 11.0249L19.7667 7.79158C20.2348 7.32283 20.4978 6.68742 20.4978 6.02492C20.4978 5.36241 20.2348 4.727 19.7667 4.25825Z" fill="#F2F4FF"/>
</svg>
