<svg width="32" height="32" viewBox="0 0 20 20" fill="none" xmlns="http://www.w3.org/2000/svg">
<rect width="20" height="20" rx="10" fill="#75757A"/>
<g clip-path="url(#clip0_1077_189068)">
<path d="M16.0189 5.58475L7.95779 13.6453C7.9036 13.6997 7.83919 13.7428 7.76827 13.7723C7.69734 13.8018 7.6213 13.8169 7.5445 13.8169C7.4677 13.8169 7.39166 13.8018 7.32074 13.7723C7.24982 13.7428 7.18541 13.6997 7.13121 13.6453L4.01388 10.525C3.95968 10.4706 3.89527 10.4274 3.82435 10.398C3.75343 10.3685 3.67738 10.3533 3.60059 10.3533C3.52379 10.3533 3.44775 10.3685 3.37682 10.398C3.3059 10.4274 3.24149 10.4706 3.18729 10.525C3.13288 10.5792 3.08971 10.6436 3.06025 10.7145C3.03079 10.7855 3.01562 10.8615 3.01562 10.9383C3.01562 11.0151 3.03079 11.0911 3.06025 11.1621C3.08971 11.233 3.13288 11.2974 3.18729 11.3516L6.30579 14.4695C6.63476 14.7979 7.08058 14.9823 7.54538 14.9823C8.01018 14.9823 8.45599 14.7979 8.78496 14.4695L16.8455 6.41075C16.8998 6.35657 16.9429 6.2922 16.9723 6.22133C17.0017 6.15046 17.0168 6.07448 17.0168 5.99775C17.0168 5.92103 17.0017 5.84505 16.9723 5.77418C16.9429 5.70331 16.8998 5.63894 16.8455 5.58475C16.7913 5.53034 16.7269 5.48717 16.6559 5.45771C16.585 5.42825 16.509 5.41309 16.4322 5.41309C16.3554 5.41309 16.2793 5.42825 16.2084 5.45771C16.1375 5.48717 16.0731 5.53034 16.0189 5.58475Z" fill="#F2F4FF"/>
</g>
<defs>
<clipPath id="clip0_1077_189068">
<rect width="14" height="14" fill="white" transform="translate(3 3)"/>
</clipPath>
</defs>
</svg>
