<svg width="32" height="32" viewBox="0 0 32 32" fill="none" xmlns="http://www.w3.org/2000/svg">
<rect width="32" height="32" rx="16" fill="#B31111"/>
<g clip-path="url(#clip0_1077_60290)">
<path d="M25.7557 6.24448C25.5994 6.08825 25.3875 6.00049 25.1665 6.00049C24.9455 6.00049 24.7336 6.08825 24.5773 6.24448L15.9998 14.822L7.42232 6.24448C7.26605 6.08825 7.05413 6.00049 6.83316 6.00049C6.61219 6.00049 6.40026 6.08825 6.24399 6.24448C6.08776 6.40075 6 6.61267 6 6.83364C6 7.05461 6.08776 7.26654 6.24399 7.42281L14.8215 16.0003L6.24399 24.5778C6.08776 24.7341 6 24.946 6 25.167C6 25.3879 6.08776 25.5999 6.24399 25.7561C6.40026 25.9124 6.61219 26.0001 6.83316 26.0001C7.05413 26.0001 7.26605 25.9124 7.42232 25.7561L15.9998 17.1786L24.5773 25.7561C24.7336 25.9124 24.9455 26.0001 25.1665 26.0001C25.3875 26.0001 25.5994 25.9124 25.7557 25.7561C25.9119 25.5999 25.9996 25.3879 25.9996 25.167C25.9996 24.946 25.9119 24.7341 25.7557 24.5778L17.1782 16.0003L25.7557 7.42281C25.9119 7.26654 25.9996 7.05461 25.9996 6.83364C25.9996 6.61267 25.9119 6.40075 25.7557 6.24448Z" fill="#FF897D"/>
</g>
<defs>
<clipPath id="clip0_1077_60290">
<rect width="20" height="20" fill="white" transform="translate(6 6)"/>
</clipPath>
</defs>
</svg>
