<svg width="181" height="23" viewBox="0 0 181 23" fill="none" xmlns="http://www.w3.org/2000/svg">
<path d="M34.5887 18.4383H27.1675L25.397 16.7031V13.9664H28.143V16.1473H33.6161V11.8535H27.2347L25.4863 10.1182V4.7079L27.2337 2.97266H34.4743L36.2448 4.7079V7.6885H33.4997V5.26861H28.2113V9.56244H34.5887L36.3361 11.2977V16.708L34.5887 18.4383Z" fill="#050505"/>
<path d="M40.8499 22.9648H38.2212V6.74475H40.5851V8.00958L41.8687 6.74475H46.2841L48.0287 8.42316V16.7949L46.2841 18.4955H40.8499V22.9648ZM45.3785 9.16644H41.8218L40.8499 9.99456V16.1211H45.3785V9.16644Z" fill="#050505"/>
<path d="M52.5572 18.4382H49.9167V2.21814H52.5572V18.4382Z" fill="#050505"/>
<path d="M64.2501 8.41498V18.4383H62.0554V17.1365L60.7736 18.4383H56.5149L54.8198 16.746V13.5351L56.5149 11.8408H61.7297V8.97908H57.4056V10.3462H54.9284V8.41498L56.6455 6.74475H62.5772L64.2501 8.41498ZM61.7297 13.3403H57.3403V16.3556H60.8197L61.7326 15.5526L61.7297 13.3403Z" fill="#050505"/>
<path d="M73.3033 18.4382H69.0979L67.3727 16.7233V8.69878H65.759V6.58814H67.3727V4.10419H70.0045V6.58814H73.1008V8.69878H70.0074V15.998H73.3033V18.4382Z" fill="#050505"/>
<path d="M84.2418 8.41498V18.4383H81.9596V17.1365L80.6256 18.4383H76.197L74.4343 16.746V13.5351L76.197 11.8408H81.6198V8.97908H77.1233V10.3462H74.5472V8.41498L76.3329 6.74475H82.5012L84.2418 8.41498ZM81.6198 13.3403H77.0553V16.3556H80.6736L81.6218 15.5526L81.6198 13.3403Z" fill="#050505"/>
<path d="M94.0841 18.4383H91.4097V2.97266H100.309L101.972 4.70845V10.9825L99.6181 13.4307H94.0879L94.0841 18.4383ZM94.0841 11.0278H98.4261L99.3115 10.1422V5.48778H94.0841V11.0278Z" fill="#050505"/>
<path d="M105.565 6.74475H111.956L113.664 8.41498V16.746L111.956 18.4383H105.565L103.857 16.746V8.41498L105.565 6.74475ZM111.024 16.0735V9.08749H106.497V16.0735H111.024Z" fill="#050505"/>
<path d="M124.225 18.4383H115.173V15.2945L121.185 9.47795V8.82751H115.243V6.74475H124.032V9.89047L117.993 15.661V16.3325H124.226L124.225 18.4383Z" fill="#050505"/>
<path d="M125.888 19.1279H128.382V20.7408H132.922V17.8197H127.439L125.736 16.1191V6.74475H128.357V15.5745H132.922V6.74475H135.543V21.2643L133.817 22.9648H127.592L125.888 21.2643V19.1279Z" fill="#050505"/>
<path d="M144.298 16.0697V13.9657H146.859V16.7467L145.136 18.4383H139.129L137.429 16.7467V8.4143L139.129 6.74475H145.136L146.859 8.4143V11.1675H144.298V9.08653H140.013V16.0697H144.298Z" fill="#050505"/>
<path d="M157.422 18.4383H147.991V15.2945L154.255 9.47987V8.82942H148.06V6.74475H157.215V9.89047L150.924 15.661V16.3325H157.417L157.422 18.4383Z" fill="#050505"/>
<path d="M165.856 16.2903V14.4244H168.36V16.746L166.684 18.4383H160.608L158.93 16.746V8.41498L160.608 6.74475H166.684L168.36 8.41498V13.0794H161.478V16.2903H165.856ZM165.856 8.87068H161.478V11.6528H165.856V8.87068Z" fill="#050505"/>
<path d="M172.941 18.4373H170.246V2.21814H172.941V11.699L177.154 8.2052V6.60774H179.872V9.0214L176.724 11.5894L180.054 15.9363V18.4382H177.313V16.5729L174.844 13.1703L172.941 14.7066V18.4373Z" fill="#050505"/>
<path d="M18.2282 15.0435H1.63086V19.1928H18.2282V15.0435Z" fill="#FCCF4F"/>
<path d="M21.098 11.1535L5.07642 7.74805L4.1403 12.1521L20.1619 15.5576L21.098 11.1535Z" fill="#FCCF4F"/>
<path d="M16.5216 0.709373L0.5 4.11487L1.43612 8.51896L17.4577 5.11346L16.5216 0.709373Z" fill="#FCCF4F"/>
</svg>
